<svg xmlns="http://www.w3.org/2000/svg" width="48" height="48" viewBox="0 0 48 48">
  <g id="Group_3814" data-name="Group 3814" transform="translate(-565 569)">
    <rect id="Rectangle_339" data-name="Rectangle 339" width="48" height="48" rx="10" transform="translate(565 -569)" fill="#4791ff" opacity="0.17"/>
    <g id="bank-account" transform="translate(577.491 -557.058)">
      <g id="Group_3802" data-name="Group 3802" transform="translate(0 0)">
        <g id="Group_3801" data-name="Group 3801">
          <path id="Path_12577" data-name="Path 12577" d="M20.953,9.311a.388.388,0,0,0,.388-.388V7.759h1.552a.388.388,0,0,0,.388-.388V3.492A.388.388,0,0,0,23,3.118L11.745.014a.381.381,0,0,0-.206,0L.288,3.118A.388.388,0,0,0,0,3.492v3.88a.388.388,0,0,0,.388.388H1.943V8.923a.388.388,0,0,0,.388.388h.388v6.207H2.331a.388.388,0,0,0-.388.388V17.07H1.167a.388.388,0,0,0-.388.388v1.164H.391A.388.388,0,0,0,0,19.01v1.552a.388.388,0,0,0,.388.388H9.314v1.94a.388.388,0,0,0,.388.388H22.893a.388.388,0,0,0,.388-.388V14.355a.388.388,0,0,0-.388-.388H20.565V9.311h.388ZM.779,6.984v-3.2l10.863-3,10.863,3v3.2ZM13.194,8.535V7.759h2.328v.776H13.194Zm1.552.776v4.656H13.97V9.311h.776Zm.776,0h.388a.388.388,0,0,0,.388-.388V7.759h1.164V8.923a.388.388,0,0,0,.388.388h.388v4.656H15.521Zm-2.716,0h.388v4.656h-3.1V9.311h.388a.388.388,0,0,0,.388-.388V7.759h1.552V8.923A.388.388,0,0,0,12.806,9.311ZM5.434,15.519H5.046V9.311h.388a.388.388,0,0,0,.388-.388V7.759H6.986V8.923a.388.388,0,0,0,.388.388h.388v6.207H7.374a.388.388,0,0,0-.388.388V17.07H5.822V15.907A.388.388,0,0,0,5.434,15.519ZM2.719,8.535V7.759H5.046v.776Zm1.552.776v6.207H3.495V9.311h.776ZM2.719,16.295H5.046v.776H2.719Zm6.6,3.88H.779V19.4H9.314Zm0-1.552H1.555v-.776H9.314Zm0-1.552H7.762v-.776H9.314Zm0-1.552H8.538V9.311h.776ZM7.762,8.535V7.759H10.09v.776H7.762ZM22.5,22.5H10.09V17.846H22.5Zm0-5.431H10.09v-.776H22.5Zm0-2.328v.776H10.09v-.776Zm-3.492-.776V9.311h.776v4.656Zm-.776-5.431V7.759h2.328v.776Z" transform="translate(-0.003 0)"/>
          <path id="Path_12578" data-name="Path 12578" d="M51.892,35.859l-9.7-2.677a.381.381,0,0,0-.206,0l-9.7,2.677a.388.388,0,0,0-.285.374v1.146a.388.388,0,0,0,.388.388h19.4a.388.388,0,0,0,.388-.388V36.233A.388.388,0,0,0,51.892,35.859ZM51.4,36.991H32.779v-.462L42.09,33.96,51.4,36.529Z" transform="translate(-30.451 -31.56)"/>
          <path id="Path_12579" data-name="Path 12579" d="M216,57.17a1.164,1.164,0,1,0,1.164-1.164A1.164,1.164,0,0,0,216,57.17Zm1.552,0a.388.388,0,1,1-.388-.388A.388.388,0,0,1,217.555,57.17Z" transform="translate(-205.528 -53.29)"/>
          <path id="Path_12580" data-name="Path 12580" d="M369.808,402.031a1.164,1.164,0,1,0,.776-2.025h0a3.846,3.846,0,0,1-2.42.381,1.164,1.164,0,0,0,1.644,1.644Zm.776-1.249a.388.388,0,1,1-.388.388A.388.388,0,0,1,370.584,400.781Zm-1.552,0a.388.388,0,1,1-.388.388A.388.388,0,0,1,369.032,400.781Z" transform="translate(-350.022 -380.607)"/>
          <path id="Path_12581" data-name="Path 12581" d="M224.391,416.782h.776a.388.388,0,1,0,0-.776h-.776a.388.388,0,1,0,0,.776Z" transform="translate(-213.14 -395.832)"/>
          <path id="Path_12582" data-name="Path 12582" d="M272.391,416.782h3.1a.388.388,0,0,0,0-.776h-3.1a.388.388,0,1,0,0,.776Z" transform="translate(-258.812 -395.832)"/>
        </g>
      </g>
    </g>
  </g>
</svg>
