<svg xmlns="http://www.w3.org/2000/svg" width="48" height="48" viewBox="0 0 48 48">
  <g id="Group_3807" data-name="Group 3807" transform="translate(-864 422)">
    <g id="Group_3806" data-name="Group 3806">
      <rect id="Rectangle_350" data-name="Rectangle 350" width="48" height="48" rx="10" transform="translate(864 -422)" fill="#4791ff" opacity="0.17"/>
      <g id="customer_2_" data-name="customer (2)" transform="translate(875 -411)">
        <path id="Path_12619" data-name="Path 12619" d="M17.258,9.516a7.8,7.8,0,0,0-.822.045,7.783,7.783,0,1,0-6.875,6.875,7.741,7.741,0,1,0,7.7-6.92ZM8.742,15.71a7.013,7.013,0,1,1,6.9-6.021,7.642,7.642,0,0,0-.819.226,6.214,6.214,0,1,0-4.9,4.9,7.752,7.752,0,0,0-.226.819A7.034,7.034,0,0,1,8.742,15.71Zm1.533-1.771A5.4,5.4,0,0,1,4.89,12.548,1.15,1.15,0,0,1,5.8,11.58l1.43-.29a1.569,1.569,0,0,0,.255-.1l1.255,1.685L10,11.186a1.654,1.654,0,0,0,.282.112l1.4.283a1.146,1.146,0,0,1,.243.081,7.772,7.772,0,0,0-1.65,2.278Zm-3.468-5.2a.387.387,0,0,1,0-.774Zm.3-1.548h-.3a1.145,1.145,0,0,0-.293.042A1.792,1.792,0,0,1,8.222,4.871h1.04A1.792,1.792,0,0,1,10.97,7.236a1.145,1.145,0,0,0-.293-.042H9.607a3.294,3.294,0,0,1-1.467-.346l-.082-.041H7.968A1.155,1.155,0,0,0,7.108,7.194Zm3.569.774a.387.387,0,1,1,0,.774ZM9.9,8.742a1.161,1.161,0,0,1-2.323,0V7.968a.388.388,0,0,1,.313-.38,4.077,4.077,0,0,0,1.714.38h.3ZM8.146,10.574a1.764,1.764,0,0,0,1.192,0c.022.038.045.074.07.11l-.666.894-.666-.893C8.1,10.648,8.124,10.612,8.146,10.574Zm4.4.554a1.913,1.913,0,0,0-.713-.307l-1.37-.276a.771.771,0,0,1-.453-.355,1.939,1.939,0,0,0,.5-.675h.165a1.159,1.159,0,0,0,.95-1.826A2.571,2.571,0,0,0,9.262,4.1H8.222A2.572,2.572,0,0,0,5.857,7.69a1.158,1.158,0,0,0,.95,1.826h.164a1.938,1.938,0,0,0,.5.675.742.742,0,0,1-.424.347l-1.4.283a1.915,1.915,0,0,0-1.34,1.029,5.419,5.419,0,1,1,9.628-1.575,7.768,7.768,0,0,0-1.39.853Zm4.711,13.1a6.968,6.968,0,1,1,6.968-6.968A6.976,6.976,0,0,1,17.258,24.226Z"/>
        <path id="Path_12620" data-name="Path 12620" d="M57.29,25.7l.761-.141c-.051-.274-.113-.55-.185-.82l-.748.2C57.185,25.191,57.243,25.447,57.29,25.7Z" transform="translate(-34.395 -14.551)"/>
        <path id="Path_12621" data-name="Path 12621" d="M40.161,6.323a1.155,1.155,0,0,0,.848-.373,10.157,10.157,0,0,1,4.773,5.534l.73-.258a10.936,10.936,0,0,0-5.2-5.99c0-.025.007-.05.007-.075a1.161,1.161,0,1,0-1.161,1.161Zm0-1.548a.387.387,0,1,1-.387.387A.388.388,0,0,1,40.161,4.774Z" transform="translate(-23.29 -1.839)"/>
        <path id="Path_12622" data-name="Path 12622" d="M5.232,36.777l-.761.141c.051.274.113.55.185.82l.748-.2c-.067-.25-.125-.506-.172-.76Z" transform="translate(-2.127 -21.928)"/>
        <path id="Path_12623" data-name="Path 12623" d="M11.944,45.828a1.155,1.155,0,0,0-.848.373,10.16,10.16,0,0,1-4.773-5.534l-.73.258a10.936,10.936,0,0,0,5.2,5.99c0,.025-.007.05-.007.075a1.161,1.161,0,1,0,1.161-1.161Zm0,1.548a.387.387,0,1,1,.387-.387A.388.388,0,0,1,11.944,47.377Z" transform="translate(-2.815 -24.312)"/>
        <path id="Path_12624" data-name="Path 12624" d="M38.385,33.454h0A1.541,1.541,0,0,0,37,33.026a1.6,1.6,0,0,0-.839.458l-4.295,4.294-1.2-1.2a1.6,1.6,0,0,0-.838-.457,1.55,1.55,0,0,0-1.809,1.808,1.6,1.6,0,0,0,.458.839l2.292,2.293a1.547,1.547,0,0,0,2.189,0l5.39-5.39a1.6,1.6,0,0,0,.458-.839,1.54,1.54,0,0,0-.428-1.38ZM38.051,34.7a.842.842,0,0,1-.243.429l-5.39,5.39a.792.792,0,0,1-1.095,0l-2.293-2.293a.845.845,0,0,1-.243-.429.776.776,0,0,1,.761-.922.761.761,0,0,1,.576.256l1.745,1.745,4.842-4.842a.845.845,0,0,1,.429-.243.776.776,0,0,1,.909.909Z" transform="translate(-16.548 -19.613)"/>
      </g>
    </g>
  </g>
</svg>
