<svg xmlns="http://www.w3.org/2000/svg" width="48" height="48" viewBox="0 0 48 48">
  <g id="Group_3805" data-name="Group 3805" transform="translate(-864 493)">
    <g id="Group_3804" data-name="Group 3804">
      <rect id="Rectangle_349" data-name="Rectangle 349" width="48" height="48" rx="10" transform="translate(864 -493)" fill="#4791ff" opacity="0.17"/>
      <g id="update_1_" data-name="update (1)" transform="translate(877 -519.275)">
        <circle id="Ellipse_92" data-name="Ellipse 92" cx="0.33" cy="0.33" r="0.33" transform="translate(10.93 54.293)"/>
        <path id="Path_12615" data-name="Path 12615" d="M21.311,41.275H5.876a.33.33,0,0,0,0,.66H21.311a.55.55,0,0,1,.55.55V53.057H17.577a.33.33,0,0,0,0,.66H21.86v1.308a.55.55,0,0,1-.55.55H1.21a.55.55,0,0,1-.55-.55V53.717h15.6a.33.33,0,1,0,0-.66H.66V42.485a.55.55,0,0,1,.55-.55H4.557a.33.33,0,0,0,0-.66H1.21A1.211,1.211,0,0,0,0,42.485V55.025a1.211,1.211,0,0,0,1.21,1.21H8.718L8.4,57.921H7.289a1.358,1.358,0,0,0-1.356,1.356V59.5h-1.6a.33.33,0,1,0,0,.66H18.188a.33.33,0,1,0,0-.66h-1.6v-.228a1.358,1.358,0,0,0-1.356-1.356H14.118L13.8,56.235h7.508a1.211,1.211,0,0,0,1.21-1.21V42.485A1.211,1.211,0,0,0,21.311,41.275Zm-5.384,18V59.5H6.593v-.228a.7.7,0,0,1,.7-.7h7.941a.7.7,0,0,1,.7.7Zm-2.48-1.356H9.073l.316-1.686h3.742Z"/>
        <path id="Path_12616" data-name="Path 12616" d="M161.762,80.555a4.545,4.545,0,1,0-4.545,4.545A4.55,4.55,0,0,0,161.762,80.555Zm-8.43,0a3.885,3.885,0,1,1,3.885,3.885A3.89,3.89,0,0,1,153.332,80.555Z" transform="translate(-145.957 -33.207)"/>
        <path id="Path_12617" data-name="Path 12617" d="M190.719,165.19a2.231,2.231,0,0,0,1.343-.445.33.33,0,0,0-.395-.529,1.575,1.575,0,0,1-.949.314,1.592,1.592,0,0,1-1.539-1.194l.194.194a.33.33,0,0,0,.466-.467l-.781-.781a.33.33,0,0,0-.467,0l-.781.781a.33.33,0,0,0,.467.467l.222-.222A2.252,2.252,0,0,0,190.719,165.19Z" transform="translate(-179.459 -115.593)"/>
        <path id="Path_12618" data-name="Path 12618" d="M222.571,129.193a1.574,1.574,0,0,1,.964-.325,1.592,1.592,0,0,1,1.539,1.194l-.194-.194a.33.33,0,0,0-.467.467l.781.781a.33.33,0,0,0,.467,0l.781-.781a.33.33,0,0,0-.467-.467l-.222.222a2.252,2.252,0,0,0-2.218-1.881,2.229,2.229,0,0,0-1.364.461.33.33,0,1,0,.4.524Z" transform="translate(-212.274 -83.109)"/>
      </g>
    </g>
  </g>
</svg>
