<svg xmlns="http://www.w3.org/2000/svg" width="48" height="48" viewBox="0 0 48 48">
  <g id="Group_3817" data-name="Group 3817" transform="translate(-565 701)">
    <g id="Group_3816" data-name="Group 3816">
      <rect id="Rectangle_344" data-name="Rectangle 344" width="48" height="48" rx="10" transform="translate(565 -701)" fill="#4791ff" opacity="0.17"/>
      <g id="credit-card_5_" data-name="credit-card (5)" transform="translate(578 -689)">
        <g id="Group_3803" data-name="Group 3803" transform="translate(0)">
          <path id="Path_12583" data-name="Path 12583" d="M45.858,4.618H41.013V1.385A1.387,1.387,0,0,0,39.628,0H27.386A1.387,1.387,0,0,0,26,1.385V22.258a1.387,1.387,0,0,0,1.385,1.385H39.628a1.387,1.387,0,0,0,1.385-1.385V19.4h4.845a1.387,1.387,0,0,0,1.385-1.385V6a1.387,1.387,0,0,0-1.385-1.385ZM38.469,18.472a.462.462,0,0,1-.462-.462V6a.462.462,0,0,1,.462-.462h3.694v12.93Zm4.618-12.93h.924v12.93h-.924Zm-3,13.854v2.863a.462.462,0,0,1-.462.462H27.386a.462.462,0,0,1-.462-.462V3.232h4.5a.462.462,0,0,0,0-.924h-4.5V1.385a.462.462,0,0,1,.462-.462H39.628a.462.462,0,0,1,.462.462v.924h-4.5a.462.462,0,1,0,0,.924h4.5V4.618h-1.62a1.388,1.388,0,0,0-1.306.924H32.122a.462.462,0,1,0,0,.924h4.962V7.541H32.122a.462.462,0,1,0,0,.924h4.962V10.04H32.122a.462.462,0,1,0,0,.924h4.962V12.04H32.122a.462.462,0,1,0,0,.924h4.962v1.576H32.122a.462.462,0,1,0,0,.924h4.962v1.076H32.122a.462.462,0,1,0,0,.924h4.962v.548A1.387,1.387,0,0,0,38.469,19.4Zm6.23-1.385a.462.462,0,0,1-.462.462h-.924V5.542h.924A.462.462,0,0,1,46.32,6Z" transform="translate(-26.001 0)"/>
          <path id="Path_12584" data-name="Path 12584" d="M159.929,412a1.385,1.385,0,1,0,1.385,1.385A1.387,1.387,0,0,0,159.929,412Zm0,1.847a.462.462,0,1,1,.462-.462A.462.462,0,0,1,159.929,413.847Z" transform="translate(-152.423 -392.974)"/>
          <path id="Path_12585" data-name="Path 12585" d="M70.854,120H69.007a.462.462,0,0,0-.462.462v2a.462.462,0,0,0,.462.462h1.847a.462.462,0,0,0,.462-.462v-2A.462.462,0,0,0,70.854,120Zm-.462,2h-.924v-1.076h.924Z" transform="translate(-66.58 -114.461)"/>
          <path id="Path_12586" data-name="Path 12586" d="M70.854,217.422H69.007a.462.462,0,0,0-.462.462v2a.462.462,0,0,0,.462.462h1.847a.462.462,0,0,0,.462-.462v-2A.462.462,0,0,0,70.854,217.422Zm-.462,2h-.924v-1.076h.924Z" transform="translate(-66.58 -207.382)"/>
          <path id="Path_12587" data-name="Path 12587" d="M70.854,314.841H69.007a.462.462,0,0,0-.462.462v2a.462.462,0,0,0,.462.462h1.847a.462.462,0,0,0,.462-.462v-2A.462.462,0,0,0,70.854,314.841Zm-.462,2h-.924v-1.076h.924Z" transform="translate(-66.58 -300.302)"/>
          <path id="Path_12588" data-name="Path 12588" d="M306.464,140.005a.462.462,0,0,0-.462.462v3.575a.462.462,0,1,0,.924,0v-3.575A.462.462,0,0,0,306.464,140.005Z" transform="translate(-293.072 -133.54)"/>
          <path id="Path_12589" data-name="Path 12589" d="M179,50.924A.462.462,0,0,0,179,50h0a.462.462,0,0,0,0,.924Z" transform="translate(-171.496 -47.691)"/>
        </g>
      </g>
    </g>
  </g>
</svg>
