<svg xmlns="http://www.w3.org/2000/svg" width="48" height="48" viewBox="0 0 48 48">
  <g id="Group_3812" data-name="Group 3812" transform="translate(-864 701)">
    <g id="Group_3811" data-name="Group 3811">
      <rect id="Rectangle_346" data-name="Rectangle 346" width="48" height="48" rx="10" transform="translate(864 -701)" fill="#4791ff" opacity="0.17"/>
      <g id="cheque" transform="translate(867 -708.858)">
        <path id="Path_12602" data-name="Path 12602" d="M32.613,28.943H31l1.93-7.2a1.412,1.412,0,0,0-1-1.729l-.389-.1a1.415,1.415,0,0,0-1.73,1l-.47,1.754-.39-.1.418-1.559a.4.4,0,0,0-.285-.494l-1.17-.313a.4.4,0,0,0-.494.285L25.644,27.1a.4.4,0,0,0,.285.494l1.169.313a.391.391,0,0,0,.1.014.4.4,0,0,0,.39-.3l1.149-4.287.39.1-1.475,5.506H18.462a4.842,4.842,0,1,0-6.4,0H8.4a.4.4,0,0,0-.4.4V43.066a.4.4,0,0,0,.4.4h24.21a.4.4,0,0,0,.4-.4V29.347A.4.4,0,0,0,32.613,28.943Zm-4.546-6.209h0l-1.148,4.287-.39-.1,1.567-5.846.39.1Zm.289,6.717,1.659-6.195.574-2.144a.606.606,0,0,1,.741-.428l.389.1a.6.6,0,0,1,.428.741l-2.066,7.711h0l-.805,3.006-1.559-.418Zm.712,3.577-.836,3.118-1.558-.418.835-3.118Zm-1.045,3.9-.679,2.533a.6.6,0,0,1-.741.428l-.39-.1a.605.605,0,0,1-.428-.741l.623-2.327.055-.206Zm-16.8-11.614a4.035,4.035,0,1,1,4.035,4.035,4.035,4.035,0,0,1-4.035-4.035ZM8.807,29.75h4.522a4.835,4.835,0,0,0,3.867,0H27.44l-1.73,6.456H8.807Zm23.4,12.912H8.807V37.013H25.493l-.487,1.819a1.413,1.413,0,0,0,.807,1.663l-.213.793a.4.4,0,0,0,.285.494.416.416,0,0,0,.1.014.4.4,0,0,0,.389-.3l.213-.794a1.366,1.366,0,0,0,.169.011,1.412,1.412,0,0,0,1.361-1.047l.711-2.654H32.21Zm0-6.456H29.052l1.73-6.456H32.21Z" transform="translate(0 0)"/>
        <path id="Path_12603" data-name="Path 12603" d="M50.63,376c-.726-.027-1.465-.068-2.181-.107s-1.463-.08-2.2-.107c-.606-.023-1.332-.107-1.562-.559a1.838,1.838,0,0,1-.121-.386,1.684,1.684,0,0,0-.39-.844,1.4,1.4,0,0,0-1.906.1,3.748,3.748,0,0,0-.656.869c-.088.145-.171.282-.263.408-.206.285-.536.571-.846.516a.828.828,0,0,1-.539-.632,3.562,3.562,0,0,1-.066-.9c0-.109,0-.222,0-.335-.014-.758-.332-1.285-.852-1.408a1.358,1.358,0,0,0-1.225.482,9.958,9.958,0,0,0-2.139,3.01.4.4,0,1,0,.733.338,9.155,9.155,0,0,1,1.966-2.767c.283-.273.422-.291.479-.278.125.03.225.3.231.637,0,.1,0,.2,0,.314a4.217,4.217,0,0,0,.092,1.111,1.587,1.587,0,0,0,1.18,1.225,1.727,1.727,0,0,0,1.641-.838c.11-.152.205-.309.3-.46a3.1,3.1,0,0,1,.51-.692c.224-.2.615-.306.785-.132a1.058,1.058,0,0,1,.183.469,2.5,2.5,0,0,0,.187.564c.475.933,1.719.98,2.251,1,.726.027,1.467.068,2.183.107s1.462.08,2.195.107h.015A.4.4,0,1,0,50.63,376Z" transform="translate(-26.256 -334.935)"/>
        <path id="Path_12604" data-name="Path 12604" d="M393.211,440H392.4a.4.4,0,0,0,0,.807h.807a.4.4,0,0,0,0-.807Z" transform="translate(-364.632 -398.952)"/>
        <path id="Path_12605" data-name="Path 12605" d="M40.4,235.228h8.473a.4.4,0,0,0,.4-.4V232.4a.4.4,0,0,0-.4-.4H40.4a.4.4,0,0,0-.4.4v2.421A.4.4,0,0,0,40.4,235.228Zm.4-2.421h7.666v1.614H40.807Z" transform="translate(-30.386 -201.443)"/>
        <path id="Path_12606" data-name="Path 12606" d="M240.4,232.807h5.649a.4.4,0,1,0,0-.807H240.4a.4.4,0,0,0,0,.807Z" transform="translate(-220.299 -201.443)"/>
        <path id="Path_12607" data-name="Path 12607" d="M240.4,256.807h5.649a.4.4,0,1,0,0-.807H240.4a.4.4,0,0,0,0,.807Z" transform="translate(-220.299 -224.232)"/>
        <path id="Path_12608" data-name="Path 12608" d="M240.4,280.807h2.421a.4.4,0,1,0,0-.807H240.4a.4.4,0,1,0,0,.807Z" transform="translate(-220.299 -247.022)"/>
        <path id="Path_12609" data-name="Path 12609" d="M312.807,280h-.4a.4.4,0,1,0,0,.807h.4a.4.4,0,1,0,0-.807Z" transform="translate(-288.667 -247.022)"/>
        <path id="Path_12610" data-name="Path 12610" d="M83.631,63.263A3.631,3.631,0,1,0,80,59.631,3.631,3.631,0,0,0,83.631,63.263Zm0-6.456a2.824,2.824,0,1,1-2.824,2.824A2.824,2.824,0,0,1,83.631,56.807Z" transform="translate(-68.369 -34.319)"/>
      </g>
    </g>
  </g>
</svg>
