<svg xmlns="http://www.w3.org/2000/svg" width="48" height="48" viewBox="0 0 48 48">
  <g id="Group_3842" data-name="Group 3842" transform="translate(-900 723)">
    <g id="Group_3820" data-name="Group 3820" transform="translate(36 -22)">
      <g id="Group_3811" data-name="Group 3811">
        <rect id="Rectangle_346" data-name="Rectangle 346" width="48" height="48" rx="10" transform="translate(864 -701)" fill="#4791ff" opacity="0.17"/>
      </g>
    </g>
    <g id="online-banking" transform="translate(893.214 -724.25)">
      <path id="Path_12632" data-name="Path 12632" d="M47.243,19.348a.431.431,0,0,0-.431-.431H44.348a.431.431,0,0,0,0,.862h2.464A.431.431,0,0,0,47.243,19.348Z" transform="translate(-16.329 -5.024)"/>
      <path id="Path_12633" data-name="Path 12633" d="M33.655,12.25H24.848a2.6,2.6,0,0,0-2.6,2.6v20.3a2.6,2.6,0,0,0,2.6,2.6h8.807a2.6,2.6,0,0,0,2.6-2.6V29.538H41a1.823,1.823,0,0,0,1.822-1.822V22.284A1.823,1.823,0,0,0,41,20.461H36.252V14.848A2.6,2.6,0,0,0,33.655,12.25Zm1.735,22.9a1.737,1.737,0,0,1-1.735,1.735H24.848a1.737,1.737,0,0,1-1.735-1.735v-20.3a1.737,1.737,0,0,1,1.735-1.735h8.807a1.737,1.737,0,0,1,1.735,1.735v5.615H31.23a1.592,1.592,0,0,0-1.59,1.59v5.895a1.592,1.592,0,0,0,1.59,1.59h4.159Zm6.57-12.868v5.431a.961.961,0,0,1-.959.96H31.463a.961.961,0,0,1-.959-.96V22.284a.961.961,0,0,1,.959-.961H41a.961.961,0,0,1,.959.961Z"/>
      <path id="Path_12634" data-name="Path 12634" d="M61.684,52.25H60.092a1.176,1.176,0,0,0-1.175,1.175V54.4a1.176,1.176,0,0,0,1.175,1.175h1.592A1.177,1.177,0,0,0,62.859,54.4v-.976A1.177,1.177,0,0,0,61.684,52.25ZM62,54.4a.313.313,0,0,1-.313.313H60.092a.313.313,0,0,1-.313-.313v-.976a.313.313,0,0,1,.313-.313h1.592a.313.313,0,0,1,.313.313Z" transform="translate(-27.633 -30.145)"/>
    </g>
  </g>
</svg>
