<svg xmlns="http://www.w3.org/2000/svg" width="48" height="48" viewBox="0 0 48 48">
  <g id="Group_3801" data-name="Group 3801" transform="translate(-52 -679)">
    <rect id="Rectangle_323" data-name="Rectangle 323" width="48" height="48" rx="10" transform="translate(52 679)" fill="#245a02" opacity="0.17"/>
    <path id="Icon_feather-phone-call" data-name="Icon feather-phone-call" d="M16.879,5.739a5.3,5.3,0,0,1,4.186,4.186M16.879,1.5A9.537,9.537,0,0,1,25.3,9.914m-1.06,8.457V21.55a2.119,2.119,0,0,1-2.31,2.119,20.972,20.972,0,0,1-9.145-3.253A20.664,20.664,0,0,1,6.43,14.058,20.972,20.972,0,0,1,3.176,4.87,2.119,2.119,0,0,1,5.285,2.56H8.464a2.119,2.119,0,0,1,2.119,1.823,13.607,13.607,0,0,0,.742,2.978A2.119,2.119,0,0,1,10.849,9.6L9.5,10.942A16.955,16.955,0,0,0,15.861,17.3l1.346-1.346a2.119,2.119,0,0,1,2.236-.477,13.607,13.607,0,0,0,2.978.742A2.119,2.119,0,0,1,24.244,18.371Z" transform="translate(61.259 690.411)" fill="none" stroke="#245a02" stroke-linecap="round" stroke-linejoin="round" stroke-width="2"/>
  </g>
</svg>
