<svg xmlns="http://www.w3.org/2000/svg" width="48" height="48" viewBox="0 0 48 48">
  <g id="Group_3815" data-name="Group 3815" transform="translate(-565 634)">
    <rect id="Rectangle_343" data-name="Rectangle 343" width="48" height="48" rx="10" transform="translate(565 -634)" fill="#4791ff" opacity="0.17"/>
    <g id="finance" transform="translate(575 -622)">
      <path id="Path_12590" data-name="Path 12590" d="M130.1,88.49l-.172-.062V87.263a1.994,1.994,0,0,1,.5.149.411.411,0,0,0,.367-.735,2.785,2.785,0,0,0-.864-.241V86.29a.411.411,0,1,0-.821,0v.2l-.043.012a1.294,1.294,0,0,0-.888,1.014,1.153,1.153,0,0,0,.383,1.136,2.745,2.745,0,0,0,.548.323v1.507a1.157,1.157,0,0,1-.438-.2.411.411,0,0,0-.45.687,1.855,1.855,0,0,0,.887.34v.2a.411.411,0,1,0,.821,0v-.238a1.556,1.556,0,0,0,1.1-1.231A1.371,1.371,0,0,0,130.1,88.49Zm-1.034-.481a.35.35,0,0,1-.082-.337.539.539,0,0,1,.123-.253v.621Zm1.156,1.9a.738.738,0,0,1-.294.472V89.308A.539.539,0,0,1,130.227,89.905Z" transform="translate(-121.028 -83.605)"/>
      <path id="Path_12591" data-name="Path 12591" d="M276.389,91.582a.411.411,0,1,0,0-.821H271.6a.411.411,0,1,0,0,.821Z" transform="translate(-256.346 -88.22)"/>
      <path id="Path_12592" data-name="Path 12592" d="M241.193,127.772a.411.411,0,0,0,.411.411h6.428a.411.411,0,0,0,0-.821H241.6A.411.411,0,0,0,241.193,127.772Z" transform="translate(-227.988 -122.816)"/>
      <path id="Path_12593" data-name="Path 12593" d="M241.6,164.78h6.428a.411.411,0,0,0,0-.821H241.6a.411.411,0,1,0,0,.821Z" transform="translate(-227.988 -157.411)"/>
      <path id="Path_12594" data-name="Path 12594" d="M121.948,324.142a.712.712,0,0,0-.712.711v3.923a.712.712,0,0,0,.712.712h2.56a.712.712,0,0,0,.711-.712v-3.923a.712.712,0,0,0-.711-.711Zm2.45,4.525h-2.34v-3.7h2.34Z" transform="translate(-114.599 -308.824)"/>
      <path id="Path_12595" data-name="Path 12595" d="M219.626,304.853v5.018a.712.712,0,0,0,.712.711h2.56a.712.712,0,0,0,.712-.711v-5.018a.712.712,0,0,0-.712-.711h-2.56A.712.712,0,0,0,219.626,304.853Zm.821.11h2.34v4.8h-2.34Z" transform="translate(-207.602 -289.919)"/>
      <path id="Path_12596" data-name="Path 12596" d="M27.115,58.724a1.088,1.088,0,0,0,.04-.29v-.783a1.1,1.1,0,0,0-.812-1.056,1.09,1.09,0,0,0,.046-.312V55.5a1.09,1.09,0,0,0-.046-.312,1.1,1.1,0,0,0,.812-1.057v-.783a1.1,1.1,0,0,0-1.095-1.095h-2.53V45.2a.854.854,0,0,0-.853-.853H11.26a.411.411,0,0,0,0,.821H22.677a.032.032,0,0,1,.032.032V66.671a.032.032,0,0,1-.032.032H5.353a.032.032,0,0,1-.032-.032V45.2a.032.032,0,0,1,.032-.032H9.619a.411.411,0,0,0,0-.821H5.353A.854.854,0,0,0,4.5,45.2v9.2H1.97A1.1,1.1,0,0,0,.875,55.5v.783a1.09,1.09,0,0,0,.04.29A1.1,1.1,0,0,0,0,57.652v.783a1.1,1.1,0,0,0,.915,1.079,1.088,1.088,0,0,0-.04.29v.783a1.091,1.091,0,0,0,.04.29A1.1,1.1,0,0,0,0,61.954v.783a1.089,1.089,0,0,0,.241.684A1.089,1.089,0,0,0,0,64.106v.783a1.1,1.1,0,0,0,1.095,1.095h.656a.411.411,0,0,0,0-.821H1.095a.274.274,0,0,1-.274-.274v-.783a.274.274,0,0,1,.274-.274H4.5v1.33H3.393a.411.411,0,0,0,0,.821H4.5v.687a.854.854,0,0,0,.853.853H22.677a.854.854,0,0,0,.853-.853v-.687h2.53a1.1,1.1,0,0,0,1.095-1.095v-.783a1.089,1.089,0,0,0-.242-.684,1.089,1.089,0,0,0,.242-.684v-.783a1.09,1.09,0,0,0-.04-.29,1.1,1.1,0,0,0,.915-1.079V59.8A1.1,1.1,0,0,0,27.115,58.724ZM1.7,60.586V59.8a.274.274,0,0,1,.274-.274H4.5v1.33H1.97A.274.274,0,0,1,1.7,60.586Zm0-5.085a.274.274,0,0,1,.274-.274H4.5v1.33H1.97a.274.274,0,0,1-.274-.274ZM.821,58.434v-.783a.274.274,0,0,1,.274-.274H4.5v1.33H1.095a.274.274,0,0,1-.274-.274Zm.274,4.576a.274.274,0,0,1-.274-.274v-.783a.274.274,0,0,1,.274-.274H4.5v1.33Zm25.239-1.056v.783a.274.274,0,0,1-.274.274h-2.53v-1.33h2.53a.274.274,0,0,1,.274.274ZM25.568,55.5v.783a.274.274,0,0,1-.274.274H23.531v-1.33h1.764A.274.274,0,0,1,25.568,55.5Zm-2.038,1.878h2.53a.274.274,0,0,1,.274.274v.783a.274.274,0,0,1-.274.274h-2.53Zm2.53-4.3a.274.274,0,0,1,.274.274v.783a.274.274,0,0,1-.274.274h-2.53v-1.33Zm.274,11.813a.274.274,0,0,1-.274.274h-2.53v-1.33h2.53a.274.274,0,0,1,.274.274Zm.875-4.3a.274.274,0,0,1-.274.274H23.531v-1.33h3.405a.274.274,0,0,1,.274.274Z" transform="translate(0 -44.349)"/>
      <path id="Path_12597" data-name="Path 12597" d="M321.588,269.142a.411.411,0,0,0,.411-.411v-3.878a.712.712,0,0,0-.711-.712h-2.56a.712.712,0,0,0-.712.712v7.208a.712.712,0,0,0,.712.712h2.56a.712.712,0,0,0,.711-.712v-1.688a.411.411,0,0,0-.821,0v1.579h-2.34v-6.989h2.34v3.768A.411.411,0,0,0,321.588,269.142Z" transform="translate(-300.605 -252.109)"/>
    </g>
  </g>
</svg>
