<svg xmlns="http://www.w3.org/2000/svg" width="48" height="48" viewBox="0 0 48 48">
  <g id="Group_3844" data-name="Group 3844" transform="translate(-900 591)">
    <g id="Group_3822" data-name="Group 3822" transform="translate(36 -22)">
      <g id="Group_3808" data-name="Group 3808">
        <rect id="Rectangle_348" data-name="Rectangle 348" width="48" height="48" rx="10" transform="translate(864 -569)" fill="#4791ff" opacity="0.17"/>
      </g>
    </g>
    <g id="XMLID_1017_" transform="translate(914 -580)">
      <g id="XMLID_1278_" transform="translate(0 0)">
        <path id="XMLID_1279_" d="M224.515,46.521a.622.622,0,0,1,.669.56.508.508,0,1,0,1.016,0,1.594,1.594,0,0,0-1.177-1.5v-.071a.508.508,0,1,0-1.016,0v.071a1.594,1.594,0,0,0-1.177,1.5,1.635,1.635,0,0,0,1.684,1.576.569.569,0,1,1-.669.56.508.508,0,0,0-1.016,0,1.594,1.594,0,0,0,1.177,1.5v.071a.508.508,0,0,0,1.016,0v-.071a1.594,1.594,0,0,0,1.177-1.5,1.635,1.635,0,0,0-1.684-1.576.569.569,0,1,1,0-1.12Z" transform="translate(-214.258 -42.715)"/>
        <path id="XMLID_1303_" d="M74.008,13.926H71.687a5.458,5.458,0,0,0-5.452,5.452v2.111l-1.469,1.469V10.843a5.437,5.437,0,0,0,4.651-7.121.508.508,0,1,0-.964.32,4.413,4.413,0,1,1-2.881-2.828.508.508,0,0,0,.3-.97,5.434,5.434,0,1,0-2.123,10.6v7.736L62.281,17.11V15a5.458,5.458,0,0,0-5.452-5.452H54.508a.508.508,0,0,0-.508.508v2.321a5.458,5.458,0,0,0,5.452,5.452h2.111l2.187,2.187v4.969H58.664a.508.508,0,0,0,0,1.016H69.852a.508.508,0,0,0,0-1.016H64.766v-.59l2.187-2.187h2.11a5.458,5.458,0,0,0,5.452-5.452V14.434A.508.508,0,0,0,74.008,13.926ZM59.452,16.812a4.442,4.442,0,0,1-4.437-4.437V10.563h1.813A4.442,4.442,0,0,1,61.265,15v1.095l-2.243-2.243a.508.508,0,0,0-.718.718l2.243,2.243ZM73.5,16.754a4.442,4.442,0,0,1-4.437,4.437H67.968l2.243-2.243a.508.508,0,0,0-.718-.718L67.25,20.473V19.378a4.442,4.442,0,0,1,4.437-4.437H73.5Z" transform="translate(-54 0)"/>
        <path id="XMLID_1306_" d="M314.888,29.216a.508.508,0,1,0-.359-.149A.511.511,0,0,0,314.888,29.216Z" transform="translate(-301.158 -26.768)"/>
      </g>
    </g>
  </g>
</svg>
