<svg width="233" height="81" viewBox="0 0 233 81" fill="none" xmlns="http://www.w3.org/2000/svg">
<path d="M89.5732 36.6535C88.4929 36.6535 87.6595 36.3602 87.073 35.7738C86.4866 35.1873 86.1934 34.3539 86.1934 33.2736V7.34617C86.1934 6.26586 86.5175 5.40161 87.1656 4.75342C87.8138 4.10524 88.6935 3.78114 89.8047 3.78114C90.9159 3.78114 91.7955 4.10524 92.4437 4.75342C93.0919 5.40161 93.416 6.26586 93.416 7.34617V30.7735H105.269C107.522 30.7735 108.648 31.7612 108.648 33.7366C108.648 35.6812 107.522 36.6535 105.269 36.6535H89.5732Z" fill="#1F1C2D"/>
<path d="M125.429 37.0702C122.188 37.0702 119.364 36.3911 116.956 35.033C114.579 33.644 112.743 31.6995 111.447 29.1993C110.15 26.6683 109.502 23.7052 109.502 20.3099C109.502 16.9146 110.15 13.9669 111.447 11.4668C112.743 8.93577 114.579 6.99121 116.956 5.63311C119.364 4.275 122.188 3.59595 125.429 3.59595C128.67 3.59595 131.479 4.275 133.855 5.63311C136.263 6.99121 138.115 8.93577 139.411 11.4668C140.708 13.9669 141.356 16.9146 141.356 20.3099C141.356 23.7052 140.708 26.6683 139.411 29.1993C138.115 31.6995 136.263 33.644 133.855 35.033C131.479 36.3911 128.67 37.0702 125.429 37.0702ZM125.429 31.468C128.145 31.468 130.275 30.5111 131.818 28.5974C133.392 26.6837 134.179 23.9212 134.179 20.3099C134.179 16.6986 133.408 13.9515 131.864 12.0687C130.321 10.155 128.176 9.19813 125.429 9.19813C122.682 9.19813 120.537 10.155 118.993 12.0687C117.481 13.9515 116.725 16.6986 116.725 20.3099C116.725 23.9212 117.496 26.6837 119.04 28.5974C120.583 30.5111 122.713 31.468 125.429 31.468Z" fill="#1F1C2D"/>
<path d="M156.175 36.885C155.094 36.885 154.215 36.5609 153.536 35.9127C152.887 35.2645 152.563 34.4002 152.563 33.3199V9.89262H145.063C142.779 9.89262 141.637 8.9049 141.637 6.92948C141.637 4.98492 142.779 4.01264 145.063 4.01264H167.286C169.571 4.01264 170.713 4.98492 170.713 6.92948C170.713 8.9049 169.571 9.89262 167.286 9.89262H159.786V33.3199C159.786 34.4002 159.462 35.2645 158.814 35.9127C158.166 36.5609 157.286 36.885 156.175 36.885Z" fill="#1F1C2D"/>
<path d="M187.661 37.0702C183.093 37.0702 179.605 35.8972 177.198 33.5514C174.821 31.1747 173.633 27.7177 173.633 23.1804V7.34617C173.633 6.26586 173.957 5.40161 174.605 4.75342C175.253 4.10524 176.117 3.78114 177.198 3.78114C178.278 3.78114 179.127 4.10524 179.744 4.75342C180.392 5.40161 180.716 6.26586 180.716 7.34617V23.5045C180.716 26.0973 181.303 28.0727 182.476 29.4308C183.68 30.7889 185.408 31.468 187.661 31.468C189.915 31.468 191.643 30.7889 192.847 29.4308C194.051 28.0418 194.652 26.0664 194.652 23.5045V7.34617C194.652 6.26586 194.961 5.40161 195.578 4.75342C196.227 4.10524 197.091 3.78114 198.171 3.78114C199.252 3.78114 200.116 4.10524 200.764 4.75342C201.412 5.40161 201.736 6.26586 201.736 7.34617V23.1804C201.736 27.6869 200.532 31.1284 198.125 33.5051C195.717 35.8818 192.229 37.0702 187.661 37.0702Z" fill="#1F1C2D"/>
<path d="M219.805 37.0702C217.366 37.0702 215.098 36.7924 212.999 36.2368C210.9 35.6503 209.187 34.8324 207.86 33.7829C207.397 33.4434 207.057 33.0884 206.841 32.718C206.656 32.3168 206.563 31.8229 206.563 31.2365C206.563 30.4648 206.795 29.7858 207.258 29.1993C207.752 28.6129 208.307 28.3196 208.925 28.3196C209.264 28.3196 209.588 28.3814 209.897 28.5048C210.236 28.5974 210.638 28.7826 211.101 29.0604C212.428 29.8938 213.77 30.5111 215.129 30.9124C216.487 31.2828 217.984 31.468 219.62 31.468C221.657 31.468 223.215 31.1284 224.296 30.4494C225.376 29.7703 225.916 28.7981 225.916 27.5326C225.916 26.5757 225.407 25.8041 224.388 25.2176C223.401 24.6311 221.626 24.0756 219.064 23.5508C216.193 22.9644 213.894 22.2545 212.165 21.4211C210.468 20.5877 209.218 19.5537 208.415 18.319C207.644 17.0844 207.258 15.5874 207.258 13.828C207.258 11.8835 207.813 10.1395 208.925 8.59624C210.067 7.02208 211.625 5.80287 213.601 4.93862C215.607 4.0435 217.86 3.59595 220.36 3.59595C224.743 3.59595 228.355 4.69169 231.194 6.88318C231.657 7.25357 231.981 7.6394 232.167 8.04066C232.383 8.41105 232.491 8.87404 232.491 9.42963C232.491 10.2013 232.244 10.8803 231.75 11.4668C231.287 12.0532 230.747 12.3465 230.129 12.3465C229.79 12.3465 229.466 12.3002 229.157 12.2076C228.879 12.115 228.478 11.9143 227.953 11.6057C226.688 10.8032 225.515 10.2013 224.435 9.80002C223.385 9.39876 222.043 9.19813 220.407 9.19813C218.524 9.19813 217.042 9.56852 215.962 10.3093C214.882 11.0192 214.341 12.0069 214.341 13.2724C214.341 14.0132 214.542 14.6306 214.943 15.1244C215.376 15.5874 216.07 16.0041 217.027 16.3745C218.015 16.7449 219.404 17.1307 221.194 17.532C225.392 18.4579 228.401 19.6463 230.222 21.097C232.074 22.5477 233 24.5385 233 27.0696C233 29.045 232.444 30.7889 231.333 32.3014C230.253 33.8138 228.71 34.9867 226.703 35.8201C224.728 36.6535 222.428 37.0702 219.805 37.0702Z" fill="#1F1C2D"/>
<path d="M107.167 54.9609C109.05 55.5165 110.5 56.4887 111.519 57.8777C112.568 59.2358 113.093 60.918 113.093 62.9243C113.093 65.6714 112.075 67.8474 110.037 69.4525C108.031 71.0575 105.253 71.86 101.704 71.86H89.5732C88.4929 71.86 87.6595 71.5668 87.073 70.9803C86.4866 70.3939 86.1934 69.5605 86.1934 68.4802V42.599C86.1934 41.5187 86.4866 40.6853 87.073 40.0989C87.6595 39.5124 88.4929 39.2192 89.5732 39.2192H101.241C104.636 39.2192 107.321 39.9754 109.297 41.4879C111.303 43.0003 112.306 45.0683 112.306 47.6919C112.306 49.3896 111.843 50.8866 110.917 52.1829C110.022 53.4484 108.772 54.3744 107.167 54.9609ZM93.2308 52.507H100.037C101.889 52.507 103.247 52.1984 104.111 51.581C105.006 50.9329 105.454 49.9606 105.454 48.6642C105.454 47.3061 105.006 46.3184 104.111 45.7011C103.247 45.0529 101.889 44.7288 100.037 44.7288H93.2308V52.507ZM100.87 66.3504C102.784 66.3504 104.173 66.0263 105.037 65.3782C105.901 64.73 106.333 63.6805 106.333 62.2298C106.333 60.7791 105.901 59.7142 105.037 59.0352C104.173 58.3561 102.784 58.0166 100.87 58.0166H93.2308V66.3504H100.87Z" fill="#1F1C2D"/>
<path d="M148.081 67.4616C148.328 68.0172 148.451 68.5111 148.451 68.9432C148.451 69.8074 148.096 70.5482 147.386 71.1655C146.707 71.752 145.92 72.0452 145.025 72.0452C144.439 72.0452 143.883 71.8909 143.358 71.5822C142.833 71.2427 142.432 70.7488 142.154 70.1007L139.701 64.6374H124.005L121.551 70.1007C121.274 70.7488 120.872 71.2427 120.348 71.5822C119.854 71.8909 119.298 72.0452 118.681 72.0452C117.786 72.0452 116.983 71.752 116.273 71.1655C115.563 70.5482 115.208 69.8074 115.208 68.9432C115.208 68.5111 115.332 68.0172 115.579 67.4616L128.08 41.2101C128.419 40.4693 128.928 39.9137 129.607 39.5433C130.286 39.142 131.012 38.9414 131.783 38.9414C132.586 38.9414 133.327 39.142 134.006 39.5433C134.685 39.9446 135.21 40.5001 135.58 41.2101L148.081 67.4616ZM126.459 59.1741H137.247L131.876 47.1363L126.459 59.1741Z" fill="#1F1C2D"/>
<path d="M177.341 38.9877C178.359 38.9877 179.177 39.3272 179.794 40.0063C180.443 40.6545 180.767 41.5033 180.767 42.5527V68.5265C180.767 69.6068 180.443 70.4865 179.794 71.1655C179.177 71.8137 178.359 72.1378 177.341 72.1378C176.229 72.1378 175.334 71.7366 174.655 70.934L159.145 51.0718V68.5265C159.145 69.6068 158.836 70.4865 158.219 71.1655C157.633 71.8137 156.83 72.1378 155.812 72.1378C154.793 72.1378 153.975 71.8137 153.358 71.1655C152.74 70.4865 152.432 69.6068 152.432 68.5265V42.5527C152.432 41.5033 152.74 40.6545 153.358 40.0063C154.006 39.3272 154.839 38.9877 155.858 38.9877C157 38.9877 157.88 39.389 158.497 40.1915L174.007 59.9149V42.5527C174.007 41.5033 174.316 40.6545 174.933 40.0063C175.55 39.3272 176.353 38.9877 177.341 38.9877Z" fill="#1F1C2D"/>
<path d="M213.683 66.443C214.393 67.153 214.748 67.9246 214.748 68.758C214.748 69.6222 214.409 70.3785 213.729 71.0266C213.081 71.6748 212.325 71.9989 211.461 71.9989C210.473 71.9989 209.593 71.5977 208.822 70.7951L194.469 56.7665V68.5265C194.469 69.6377 194.145 70.5174 193.497 71.1655C192.849 71.8137 191.969 72.1378 190.858 72.1378C189.747 72.1378 188.867 71.8137 188.219 71.1655C187.571 70.5174 187.246 69.6377 187.246 68.5265V42.5527C187.246 41.4724 187.571 40.6082 188.219 39.96C188.867 39.3118 189.747 38.9877 190.858 38.9877C191.969 38.9877 192.849 39.3118 193.497 39.96C194.145 40.6082 194.469 41.4724 194.469 42.5527V53.6182L208.451 40.0526C209.13 39.3735 209.902 39.034 210.766 39.034C211.631 39.034 212.387 39.3581 213.035 40.0063C213.683 40.6236 214.007 41.3644 214.007 42.2286C214.007 43.1238 213.637 43.9263 212.896 44.6362L201.877 54.9609L213.683 66.443Z" fill="#1F1C2D"/>
<path d="M31.2695 70.0414C34.1943 75.5867 38.2351 79.2512 38.4685 79.4602C38.9138 79.859 39.4733 80.0582 40.0329 80.0582C40.5924 80.0582 41.1526 79.859 41.5979 79.4602C41.8312 79.2512 45.8708 75.5867 48.7956 70.0414C45.3534 68.6718 42.3779 66.7928 40.0329 65.0134C37.6872 66.7928 34.7123 68.6718 31.2695 70.0414Z" fill="black"/>
<path d="M74.5989 49.7273C74.1627 50.2215 73.7144 50.7022 73.2526 51.164C68.6437 55.7723 62.5272 59.0679 55.0717 60.9591C51.1121 61.9633 47.4433 62.3903 44.6792 62.562C48.3449 65.0115 53.3167 67.3694 58.8749 67.3694C70.1989 67.3694 79.0911 57.5835 79.4644 57.1669C80.2615 56.2763 80.2615 54.9287 79.4644 54.0381C79.3422 53.9019 77.5414 51.9129 74.5989 49.7273Z" fill="black"/>
<path d="M24.9951 60.9597C17.5396 59.0685 11.4225 55.7729 6.81357 51.164C6.35115 50.7022 5.90339 50.2221 5.46663 49.7273C2.52475 51.9129 0.723952 53.9025 0.601781 54.0381C-0.195385 54.9287 -0.195385 56.2769 0.601781 57.1675C0.975013 57.5841 9.86723 67.3694 21.1907 67.3694C26.7494 67.3694 31.7206 65.0115 35.3869 62.562C32.6228 62.3903 28.954 61.9633 24.9951 60.9597Z" fill="black"/>
<path d="M38.4685 57.3501C38.9138 57.749 39.4734 57.9488 40.0329 57.9488C40.5925 57.9488 41.152 57.749 41.5979 57.3501C42.1734 56.8352 55.6928 44.5503 55.6928 28.9741C55.6928 13.3985 42.1734 1.11359 41.5979 0.598027C41.1526 0.199139 40.5925 0 40.0329 0C39.4734 0 38.9138 0.199139 38.4685 0.598027C37.8925 1.11359 24.373 13.3985 24.373 28.9741C24.373 44.5497 37.8931 56.8352 38.4685 57.3501Z" fill="black"/>
<path d="M64.9669 12.0595C63.8294 8.12135 62.6053 5.54415 62.5277 5.38411C62.0103 4.30595 60.7648 3.79039 59.6365 4.18622C59.4692 4.24547 56.782 5.20085 53.1938 7.18124C54.7466 9.54159 56.0624 11.9435 57.1241 14.3533C59.8051 13.3124 62.4721 12.5757 64.9669 12.0595Z" fill="black"/>
<path d="M26.8721 7.18125C23.2846 5.20086 20.5974 4.24548 20.4294 4.18623C19.3012 3.78979 18.0557 4.30596 17.5383 5.38351C17.4613 5.54416 16.2365 8.12136 15.0991 12.0595C17.5932 12.5751 20.2608 13.3118 22.9419 14.3527C24.0036 11.9441 25.3193 9.5416 26.8721 7.18125Z" fill="black"/>
<path d="M60.3835 28.9742C60.3835 33.1066 59.5668 37.3472 57.9548 41.5767C56.6921 44.8912 54.9384 48.2112 52.7417 51.4457C51.0668 53.9123 49.3722 55.9752 47.9722 57.5378C54.4307 56.7027 63.4402 54.3418 69.9355 47.8472C80.9492 36.8334 80.0763 18.5866 80.0335 17.8151C79.9675 16.6215 79.0146 15.6685 77.821 15.6026C77.7153 15.5971 77.1985 15.5708 76.3592 15.5708C73.3208 15.5708 66.0571 15.908 58.7751 18.7436C59.8435 22.1827 60.3835 25.6139 60.3835 28.9742Z" fill="black"/>
<path d="M32.0943 57.5384C30.6943 55.9752 28.9997 53.9123 27.3248 51.4457C25.1281 48.2112 23.3738 44.8912 22.1111 41.5767C20.4997 37.3472 19.6824 33.1066 19.6824 28.9742C19.6824 25.6139 20.2224 22.1827 21.2914 18.7436C14.0094 15.908 6.74629 15.5708 3.7079 15.5708C2.86736 15.5708 2.35058 15.5965 2.2449 15.6026C1.05129 15.6685 0.0983526 16.6215 0.0323803 17.8151C-0.0103796 18.5866 -0.883292 36.8334 10.1304 47.8472C16.6263 54.3424 25.6358 56.7027 32.0943 57.5384Z" fill="black"/>
</svg>
