<svg xmlns="http://www.w3.org/2000/svg" width="48" height="48" viewBox="0 0 48 48">
  <g id="Group_3841" data-name="Group 3841" transform="translate(-900 799)">
    <rect id="Rectangle_345" data-name="Rectangle 345" width="48" height="48" rx="10" transform="translate(900 -799)" fill="#cad6e9"/>
    <g id="leaves" transform="translate(912 -786.998)">
      <path id="Path_12625" data-name="Path 12625" d="M9.093,8.837A4.269,4.269,0,0,1,6.144,7.654,5.133,5.133,0,0,1,4.859,4.692,6.158,6.158,0,0,0,3.153,1.04a.5.5,0,0,1,.3-.857L3.587.169c2.484-.253,5.575-.559,8,1.774a4.312,4.312,0,0,1,1.245,3.028,3.867,3.867,0,0,1-1.09,2.814A3.721,3.721,0,0,1,9.093,8.837ZM4.525,1.083A7.8,7.8,0,0,1,5.84,4.5a4.337,4.337,0,0,0,1,2.437,3.072,3.072,0,0,0,4.2.146,2.883,2.883,0,0,0,.8-2.1A3.3,3.3,0,0,0,10.9,2.665C9.043.884,6.7.891,4.525,1.083Z"/>
      <path id="Path_12626" data-name="Path 12626" d="M18.017,7c-.07,0-.141,0-.211-.007a2.812,2.812,0,0,1-1.986-.907A3.356,3.356,0,0,1,16.1,1.409C18.085-.376,20.512-.058,22.46.2l.1.014a.5.5,0,0,1,.27.869,4.687,4.687,0,0,0-1.382,2.734,4.122,4.122,0,0,1-1.1,2.324A3.537,3.537,0,0,1,18.017,7Zm2.112-6A4.767,4.767,0,0,0,16.77,2.153a2.349,2.349,0,0,0-.2,3.274,1.828,1.828,0,0,0,1.293.567,2.564,2.564,0,0,0,1.813-.6,3.228,3.228,0,0,0,.8-1.808,6.454,6.454,0,0,1,1.008-2.5A12.775,12.775,0,0,0,20.129,1Zm-3.693.782h.01Z"/>
      <path id="Path_12627" data-name="Path 12627" d="M13.629,12.06a.5.5,0,0,1-.491-.409C12.48,8.1,9.1,5.169,9.065,5.14a.5.5,0,0,1,.65-.76c.15.128,3.683,3.18,4.407,7.089a.5.5,0,0,1-.4.582.478.478,0,0,1-.092.009Z"/>
      <path id="Path_12628" data-name="Path 12628" d="M3.5,22H.5a.5.5,0,0,1-.5-.5v-9A.5.5,0,0,1,.5,12a10.162,10.162,0,0,1,5.273,1.195.5.5,0,0,1,.212.542l-2,7.886A.5.5,0,0,1,3.5,22ZM1,21H3.111L4.92,13.87A10.032,10.032,0,0,0,1,13.009Z"/>
      <path id="Path_12629" data-name="Path 12629" d="M13,24c-2.36,0-6.923-1.984-9.434-3.168a.5.5,0,1,1,.427-.9C5.953,20.852,10.753,23,13,23c2.432,0,8.165-2.857,9.814-3.706A2.156,2.156,0,0,0,21,18.5a12.02,12.02,0,0,0-3.225.727A12.69,12.69,0,0,1,14.25,20a17.7,17.7,0,0,1-4.921-1.03.5.5,0,0,1,.342-.94A16.987,16.987,0,0,0,14.25,19a12.02,12.02,0,0,0,3.225-.727A12.69,12.69,0,0,1,21,17.5a2.976,2.976,0,0,1,2.974,1.842.5.5,0,0,1-.239.6C23.424,20.106,16.089,24,13,24Z"/>
      <path id="Path_12630" data-name="Path 12630" d="M16.5,19.59a.5.5,0,0,1-.5-.5v-.5a1.479,1.479,0,0,0-1.144-1.452L5.2,14.807a.5.5,0,0,1,.234-.973l9.65,2.33A2.477,2.477,0,0,1,17,18.59v.5A.5.5,0,0,1,16.5,19.59Z"/>
      <path id="Path_12631" data-name="Path 12631" d="M13.63,12.058h0a.5.5,0,0,1-.5-.5c0-.173.063-4.247,4.612-6.986a.5.5,0,0,1,.516.858c-4.047,2.437-4.126,5.983-4.127,6.133a.5.5,0,0,1-.5.495Z"/>
    </g>
  </g>
</svg>
