<svg xmlns="http://www.w3.org/2000/svg" width="48" height="48" viewBox="0 0 48 48">
  <g id="Group_3800" data-name="Group 3800" transform="translate(-52 -518)">
    <rect id="Rectangle_322" data-name="Rectangle 322" width="48" height="48" rx="10" transform="translate(52 518)" fill="#f2b100" opacity="0.17"/>
    <g id="customer_1_" data-name="customer (1)" transform="translate(61.922 528.678)">
      <g id="Group_3269" data-name="Group 3269" transform="translate(11.232 -2)">
        <g id="Group_3268" data-name="Group 3268">
          <path id="Path_10815" data-name="Path 10815" d="M213.284,0a3.3,3.3,0,0,0-3.255,3.255,3.3,3.3,0,0,0,3.255,3.255,3.256,3.256,0,0,0,0-6.511Z" transform="translate(-210.029 0)" fill="none" stroke="#d59d03" stroke-width="1.5"/>
        </g>
      </g>
      <g id="Group_3271" data-name="Group 3271" transform="translate(9.631 4.511)">
        <g id="Group_3270" data-name="Group 3270">
          <path id="Path_10816" data-name="Path 10816" d="M188.439,122a4.774,4.774,0,0,1-3.554,1.6,4.891,4.891,0,0,1-3.607-1.6,4.766,4.766,0,0,0-1.249,3.2v.8a.8.8,0,0,0,.8.8h8.059a.8.8,0,0,0,.8-.8v-.8A4.766,4.766,0,0,0,188.439,122Z" transform="translate(-180.029 -122)" fill="none" stroke="#d59d03" stroke-width="1.5"/>
        </g>
      </g>
      <g id="Group_3273" data-name="Group 3273" transform="translate(0.024 15.505)">
        <g id="Group_3272" data-name="Group 3272" transform="translate(0)">
          <path id="Path_10817" data-name="Path 10817" d="M7.759,299.6l-4.079-8.179a1.6,1.6,0,0,0-2.143-.72l-1.066.528a.8.8,0,0,0-.36,1.076l4.8,9.606a.8.8,0,0,0,1.072.36l1.053-.521A1.6,1.6,0,0,0,7.759,299.6Z" transform="translate(-0.024 -290.532)" fill="none" stroke="#d59d03" stroke-width="1.5"/>
        </g>
      </g>
      <g id="Group_3275" data-name="Group 3275" transform="translate(4.774 12.62)">
        <g id="Group_3274" data-name="Group 3274">
          <path id="Path_10818" data-name="Path 10818" d="M110.935,237.077a1.6,1.6,0,0,0-2.113.208l-4.376,5.379a1.935,1.935,0,0,1-1.185.512H99.53a.8.8,0,1,1,0-1.6h3.2a1.6,1.6,0,1,0,0-3.2H98.537c-.4,0-.6-.253-.913-.528a5.57,5.57,0,0,0-4.97-1.217,5.84,5.84,0,0,0-2.458,1.227l-.024-.019-1.158,1.019,4.55,9.124h9.166a4.823,4.823,0,0,0,3.843-1.921l4.7-6.724A1.613,1.613,0,0,0,110.935,237.077Z" transform="translate(-89.016 -236.479)" fill="none" stroke="#d59d03" stroke-width="1.5"/>
        </g>
      </g>
    </g>
  </g>
</svg>
