<svg xmlns="http://www.w3.org/2000/svg" width="48" height="48" viewBox="0 0 48 48">
  <g id="Group_3809" data-name="Group 3809" transform="translate(-864 569)">
    <g id="Group_3808" data-name="Group 3808">
      <rect id="Rectangle_348" data-name="Rectangle 348" width="48" height="48" rx="10" transform="translate(864 -569)" fill="#4791ff" opacity="0.17"/>
      <g id="XMLID_1095_" transform="translate(832 -557)">
        <g id="XMLID_310_" transform="translate(47)">
          <path id="XMLID_673_" d="M101.133,438.773a.452.452,0,1,0-.133-.32A.456.456,0,0,0,101.133,438.773Z" transform="translate(-98.556 -418.175)"/>
          <path id="XMLID_771_" d="M313.773,438.773a.452.452,0,1,0-.32.133A.456.456,0,0,0,313.773,438.773Z" transform="translate(-300.96 -418.175)"/>
          <path id="XMLID_1151_" d="M101.453,54.905a.453.453,0,1,0-.32-.133A.456.456,0,0,0,101.453,54.905Z" transform="translate(-98.556 -51.556)"/>
          <path id="XMLID_1152_" d="M313.773,54.773a.452.452,0,1,0-.32.133A.456.456,0,0,0,313.773,54.773Z" transform="translate(-300.96 -51.556)"/>
          <path id="XMLID_1158_" d="M201.8,150a4.8,4.8,0,1,0,4.8,4.8A4.8,4.8,0,0,0,201.8,150Zm0,8.691a3.893,3.893,0,1,1,3.893-3.893A3.9,3.9,0,0,1,201.8,158.691Z" transform="translate(-190.211 -143.211)"/>
          <path id="XMLID_1162_" d="M65.92,11.587A7.335,7.335,0,0,0,62.389,5.32V2.263A2.266,2.266,0,0,0,60.126,0H49.263A2.266,2.266,0,0,0,47,2.263V9.551a.453.453,0,0,0,.905,0V2.263A1.359,1.359,0,0,1,49.263.905H60.126a1.359,1.359,0,0,1,1.358,1.358V4.852a7.291,7.291,0,0,0-2.9-.6,7.37,7.37,0,0,0-1.177.1V2.9a.453.453,0,0,0-.453-.453H52.432a.453.453,0,0,0-.453.453V20.278a.453.453,0,0,0,.453.453h4.526a.453.453,0,0,0,.453-.453V18.824a7.319,7.319,0,0,0,4.074-.5v2.589a1.359,1.359,0,0,1-1.358,1.358H49.263a1.359,1.359,0,0,1-1.358-1.358V13.624a.453.453,0,1,0-.905,0v7.287a2.266,2.266,0,0,0,2.263,2.263H60.126a2.266,2.266,0,0,0,2.263-2.263V17.855A7.335,7.335,0,0,0,65.92,11.587ZM56.505,3.349V4.556A7.317,7.317,0,0,0,52.884,6.98V3.349Zm0,16.476H52.884v-3.63a7.316,7.316,0,0,0,3.621,2.424Zm2.082-1.811a6.4,6.4,0,0,1-5.7-3.461V8.621a6.428,6.428,0,1,1,5.7,9.393Z" transform="translate(-47)"/>
          <path id="XMLID_1166_" d="M47.453,246.905a.453.453,0,1,0-.32-.133A.456.456,0,0,0,47.453,246.905Z" transform="translate(-47 -234.865)"/>
        </g>
      </g>
    </g>
  </g>
</svg>
