<svg xmlns="http://www.w3.org/2000/svg" width="48" height="48" viewBox="0 0 48 48">
  <g id="Group_3799" data-name="Group 3799" transform="translate(-52 -360)">
    <rect id="Rectangle_321" data-name="Rectangle 321" width="48" height="48" rx="10" transform="translate(52 360)" fill="#ff5000" opacity="0.17"/>
    <path id="money" d="M27.531,27.5H2.95A2.953,2.953,0,0,0,0,30.45V45.2a2.953,2.953,0,0,0,2.95,2.95H11.8a.983.983,0,1,0,0-1.967h-4a6.9,6.9,0,0,0-5.829-5.829V35.3A6.9,6.9,0,0,0,7.8,29.467h14.89A6.9,6.9,0,0,0,28.514,35.3v5.057a6.9,6.9,0,0,0-5.829,5.829h-4a.983.983,0,1,0,0,1.967h8.849a2.953,2.953,0,0,0,2.95-2.95V30.45A2.953,2.953,0,0,0,27.531,27.5ZM5.8,46.182H2.95a.984.984,0,0,1-.983-.983V42.348A4.931,4.931,0,0,1,5.8,46.182ZM1.967,33.3V30.45a.984.984,0,0,1,.983-.983H5.8A4.931,4.931,0,0,1,1.967,33.3ZM24.68,29.467h2.851a.984.984,0,0,1,.983.983V33.3A4.931,4.931,0,0,1,24.68,29.467Zm2.851,16.715H24.68a4.931,4.931,0,0,1,3.834-3.834V45.2A.984.984,0,0,1,27.531,46.182Zm-6.883-8.358a5.408,5.408,0,1,0-5.408,5.408A5.414,5.414,0,0,0,20.648,37.824Zm-8.849,0a3.441,3.441,0,1,1,3.441,3.441A3.445,3.445,0,0,1,11.8,37.824Zm-4.425-.983a.983.983,0,1,1,0,1.967H6.883a.983.983,0,1,1,0-1.967Zm15.732,1.967a.983.983,0,1,1,0-1.967H23.6a.983.983,0,1,1,0,1.967ZM17.964,50.895a.983.983,0,0,1,0,1.391l-2.028,2.028a.983.983,0,0,1-1.391,0l-2.028-2.028a.983.983,0,1,1,1.391-1.391l.349.349V46.551a.983.983,0,0,1,1.967,0v4.693l.349-.349a.983.983,0,0,1,1.39,0Z" transform="translate(60.787 345.399)" fill="#ff5000"/>
  </g>
</svg>
